<mxfile host="app.diagrams.net" agent="Mozilla/5.0 (Windows NT 10.0; Win64; x64) AppleWebKit/537.36 (KHTML, like Gecko) Chrome/132.0.0.0 Safari/537.36" version="26.0.6">
  <diagram id="C5RBs43oDa-KdzZeNtuy" name="Page-1">
    <mxGraphModel dx="1793" dy="930" grid="1" gridSize="10" guides="1" tooltips="1" connect="1" arrows="1" fold="1" page="1" pageScale="1" pageWidth="827" pageHeight="1169" math="0" shadow="0">
      <root>
        <mxCell id="WIyWlLk6GJQsqaUBKTNV-0" />
        <mxCell id="WIyWlLk6GJQsqaUBKTNV-1" parent="WIyWlLk6GJQsqaUBKTNV-0" />
        <mxCell id="qDPiny_39G9H_rlqlFVw-59" style="rounded=0;orthogonalLoop=1;jettySize=auto;html=1;" edge="1" parent="WIyWlLk6GJQsqaUBKTNV-1" source="qDPiny_39G9H_rlqlFVw-0" target="qDPiny_39G9H_rlqlFVw-10">
          <mxGeometry relative="1" as="geometry" />
        </mxCell>
        <mxCell id="qDPiny_39G9H_rlqlFVw-60" value="*" style="edgeLabel;html=1;align=center;verticalAlign=middle;resizable=0;points=[];" vertex="1" connectable="0" parent="qDPiny_39G9H_rlqlFVw-59">
          <mxGeometry x="0.8026" y="3" relative="1" as="geometry">
            <mxPoint as="offset" />
          </mxGeometry>
        </mxCell>
        <mxCell id="qDPiny_39G9H_rlqlFVw-63" value="stores" style="edgeLabel;html=1;align=center;verticalAlign=middle;resizable=0;points=[];" vertex="1" connectable="0" parent="qDPiny_39G9H_rlqlFVw-59">
          <mxGeometry x="-0.497" relative="1" as="geometry">
            <mxPoint x="1" as="offset" />
          </mxGeometry>
        </mxCell>
        <mxCell id="qDPiny_39G9H_rlqlFVw-67" style="rounded=0;orthogonalLoop=1;jettySize=auto;html=1;" edge="1" parent="WIyWlLk6GJQsqaUBKTNV-1" source="qDPiny_39G9H_rlqlFVw-0" target="qDPiny_39G9H_rlqlFVw-13">
          <mxGeometry relative="1" as="geometry" />
        </mxCell>
        <mxCell id="qDPiny_39G9H_rlqlFVw-68" value="stores" style="edgeLabel;html=1;align=center;verticalAlign=middle;resizable=0;points=[];" vertex="1" connectable="0" parent="qDPiny_39G9H_rlqlFVw-67">
          <mxGeometry x="-0.2676" y="-3" relative="1" as="geometry">
            <mxPoint as="offset" />
          </mxGeometry>
        </mxCell>
        <mxCell id="qDPiny_39G9H_rlqlFVw-69" style="edgeStyle=orthogonalEdgeStyle;rounded=0;orthogonalLoop=1;jettySize=auto;html=1;" edge="1" parent="WIyWlLk6GJQsqaUBKTNV-1" source="qDPiny_39G9H_rlqlFVw-0" target="qDPiny_39G9H_rlqlFVw-8">
          <mxGeometry relative="1" as="geometry" />
        </mxCell>
        <mxCell id="qDPiny_39G9H_rlqlFVw-70" value="&amp;nbsp;stores&amp;nbsp;" style="edgeLabel;html=1;align=center;verticalAlign=middle;resizable=0;points=[];" vertex="1" connectable="0" parent="qDPiny_39G9H_rlqlFVw-69">
          <mxGeometry x="-0.1504" y="2" relative="1" as="geometry">
            <mxPoint as="offset" />
          </mxGeometry>
        </mxCell>
        <mxCell id="qDPiny_39G9H_rlqlFVw-0" value="Checkpoint" style="swimlane;fontStyle=0;childLayout=stackLayout;horizontal=1;startSize=26;fillColor=none;horizontalStack=0;resizeParent=1;resizeParentMax=0;resizeLast=0;collapsible=1;marginBottom=0;whiteSpace=wrap;html=1;" vertex="1" parent="WIyWlLk6GJQsqaUBKTNV-1">
          <mxGeometry x="74" y="130" width="140" height="52" as="geometry" />
        </mxCell>
        <mxCell id="qDPiny_39G9H_rlqlFVw-8" value="Game" style="swimlane;fontStyle=0;childLayout=stackLayout;horizontal=1;startSize=26;fillColor=none;horizontalStack=0;resizeParent=1;resizeParentMax=0;resizeLast=0;collapsible=1;marginBottom=0;whiteSpace=wrap;html=1;" vertex="1" parent="WIyWlLk6GJQsqaUBKTNV-1">
          <mxGeometry x="384" y="130" width="140" height="52" as="geometry" />
        </mxCell>
        <mxCell id="qDPiny_39G9H_rlqlFVw-64" style="edgeStyle=orthogonalEdgeStyle;rounded=0;orthogonalLoop=1;jettySize=auto;html=1;" edge="1" parent="WIyWlLk6GJQsqaUBKTNV-1" source="qDPiny_39G9H_rlqlFVw-9" target="qDPiny_39G9H_rlqlFVw-10">
          <mxGeometry relative="1" as="geometry" />
        </mxCell>
        <mxCell id="qDPiny_39G9H_rlqlFVw-65" value="*" style="edgeLabel;html=1;align=center;verticalAlign=middle;resizable=0;points=[];" vertex="1" connectable="0" parent="qDPiny_39G9H_rlqlFVw-64">
          <mxGeometry x="0.5391" y="2" relative="1" as="geometry">
            <mxPoint as="offset" />
          </mxGeometry>
        </mxCell>
        <mxCell id="qDPiny_39G9H_rlqlFVw-66" value="&amp;nbsp;contains&amp;nbsp;" style="edgeLabel;html=1;align=center;verticalAlign=middle;resizable=0;points=[];" vertex="1" connectable="0" parent="qDPiny_39G9H_rlqlFVw-64">
          <mxGeometry x="-0.3973" relative="1" as="geometry">
            <mxPoint as="offset" />
          </mxGeometry>
        </mxCell>
        <mxCell id="qDPiny_39G9H_rlqlFVw-9" value="Scene" style="swimlane;fontStyle=0;childLayout=stackLayout;horizontal=1;startSize=26;fillColor=none;horizontalStack=0;resizeParent=1;resizeParentMax=0;resizeLast=0;collapsible=1;marginBottom=0;whiteSpace=wrap;html=1;" vertex="1" parent="WIyWlLk6GJQsqaUBKTNV-1">
          <mxGeometry x="234" y="330" width="140" height="52" as="geometry" />
        </mxCell>
        <mxCell id="qDPiny_39G9H_rlqlFVw-56" style="rounded=0;orthogonalLoop=1;jettySize=auto;html=1;" edge="1" parent="WIyWlLk6GJQsqaUBKTNV-1" source="qDPiny_39G9H_rlqlFVw-10" target="qDPiny_39G9H_rlqlFVw-11">
          <mxGeometry relative="1" as="geometry">
            <Array as="points">
              <mxPoint x="614" y="470" />
            </Array>
          </mxGeometry>
        </mxCell>
        <mxCell id="qDPiny_39G9H_rlqlFVw-57" value="generates" style="edgeLabel;html=1;align=center;verticalAlign=middle;resizable=0;points=[];" vertex="1" connectable="0" parent="qDPiny_39G9H_rlqlFVw-56">
          <mxGeometry x="-0.0995" y="-2" relative="1" as="geometry">
            <mxPoint as="offset" />
          </mxGeometry>
        </mxCell>
        <mxCell id="qDPiny_39G9H_rlqlFVw-10" value="GameElement" style="swimlane;fontStyle=0;childLayout=stackLayout;horizontal=1;startSize=26;fillColor=none;horizontalStack=0;resizeParent=1;resizeParentMax=0;resizeLast=0;collapsible=1;marginBottom=0;whiteSpace=wrap;html=1;" vertex="1" parent="WIyWlLk6GJQsqaUBKTNV-1">
          <mxGeometry x="504" y="330" width="140" height="52" as="geometry" />
        </mxCell>
        <mxCell id="qDPiny_39G9H_rlqlFVw-53" style="rounded=0;orthogonalLoop=1;jettySize=auto;html=1;" edge="1" parent="WIyWlLk6GJQsqaUBKTNV-1" source="qDPiny_39G9H_rlqlFVw-11" target="qDPiny_39G9H_rlqlFVw-18">
          <mxGeometry relative="1" as="geometry" />
        </mxCell>
        <mxCell id="qDPiny_39G9H_rlqlFVw-54" value="generates" style="edgeLabel;html=1;align=center;verticalAlign=middle;resizable=0;points=[];" vertex="1" connectable="0" parent="qDPiny_39G9H_rlqlFVw-53">
          <mxGeometry x="-0.2195" y="1" relative="1" as="geometry">
            <mxPoint as="offset" />
          </mxGeometry>
        </mxCell>
        <mxCell id="qDPiny_39G9H_rlqlFVw-55" value="manipulates" style="rounded=0;orthogonalLoop=1;jettySize=auto;html=1;" edge="1" parent="WIyWlLk6GJQsqaUBKTNV-1" source="qDPiny_39G9H_rlqlFVw-11" target="qDPiny_39G9H_rlqlFVw-10">
          <mxGeometry relative="1" as="geometry">
            <Array as="points">
              <mxPoint x="674" y="440" />
            </Array>
          </mxGeometry>
        </mxCell>
        <mxCell id="qDPiny_39G9H_rlqlFVw-11" value="Event" style="swimlane;fontStyle=0;childLayout=stackLayout;horizontal=1;startSize=26;fillColor=none;horizontalStack=0;resizeParent=1;resizeParentMax=0;resizeLast=0;collapsible=1;marginBottom=0;whiteSpace=wrap;html=1;" vertex="1" parent="WIyWlLk6GJQsqaUBKTNV-1">
          <mxGeometry x="644" y="530" width="140" height="52" as="geometry" />
        </mxCell>
        <mxCell id="qDPiny_39G9H_rlqlFVw-12" value="Character" style="swimlane;fontStyle=0;childLayout=stackLayout;horizontal=1;startSize=26;fillColor=none;horizontalStack=0;resizeParent=1;resizeParentMax=0;resizeLast=0;collapsible=1;marginBottom=0;whiteSpace=wrap;html=1;" vertex="1" parent="WIyWlLk6GJQsqaUBKTNV-1">
          <mxGeometry x="454" y="530" width="140" height="52" as="geometry" />
        </mxCell>
        <mxCell id="qDPiny_39G9H_rlqlFVw-76" style="rounded=0;orthogonalLoop=1;jettySize=auto;html=1;" edge="1" parent="WIyWlLk6GJQsqaUBKTNV-1" source="qDPiny_39G9H_rlqlFVw-13" target="qDPiny_39G9H_rlqlFVw-15">
          <mxGeometry relative="1" as="geometry" />
        </mxCell>
        <mxCell id="qDPiny_39G9H_rlqlFVw-77" value="&amp;nbsp;*&amp;nbsp;" style="edgeLabel;html=1;align=center;verticalAlign=middle;resizable=0;points=[];" vertex="1" connectable="0" parent="qDPiny_39G9H_rlqlFVw-76">
          <mxGeometry x="0.6017" y="-1" relative="1" as="geometry">
            <mxPoint x="-1" as="offset" />
          </mxGeometry>
        </mxCell>
        <mxCell id="qDPiny_39G9H_rlqlFVw-79" value="contains" style="edgeLabel;html=1;align=center;verticalAlign=middle;resizable=0;points=[];" vertex="1" connectable="0" parent="qDPiny_39G9H_rlqlFVw-76">
          <mxGeometry x="-0.4101" y="2" relative="1" as="geometry">
            <mxPoint as="offset" />
          </mxGeometry>
        </mxCell>
        <mxCell id="qDPiny_39G9H_rlqlFVw-13" value="Inventory" style="swimlane;fontStyle=0;childLayout=stackLayout;horizontal=1;startSize=26;fillColor=none;horizontalStack=0;resizeParent=1;resizeParentMax=0;resizeLast=0;collapsible=1;marginBottom=0;whiteSpace=wrap;html=1;" vertex="1" parent="WIyWlLk6GJQsqaUBKTNV-1">
          <mxGeometry x="154" y="530" width="140" height="52" as="geometry" />
        </mxCell>
        <mxCell id="qDPiny_39G9H_rlqlFVw-51" style="edgeStyle=orthogonalEdgeStyle;rounded=0;orthogonalLoop=1;jettySize=auto;html=1;" edge="1" parent="WIyWlLk6GJQsqaUBKTNV-1" source="qDPiny_39G9H_rlqlFVw-14" target="qDPiny_39G9H_rlqlFVw-18">
          <mxGeometry relative="1" as="geometry" />
        </mxCell>
        <mxCell id="qDPiny_39G9H_rlqlFVw-52" value="announces" style="edgeLabel;html=1;align=center;verticalAlign=middle;resizable=0;points=[];" vertex="1" connectable="0" parent="qDPiny_39G9H_rlqlFVw-51">
          <mxGeometry x="0.3608" y="-1" relative="1" as="geometry">
            <mxPoint as="offset" />
          </mxGeometry>
        </mxCell>
        <mxCell id="qDPiny_39G9H_rlqlFVw-14" value="Secretary" style="swimlane;fontStyle=0;childLayout=stackLayout;horizontal=1;startSize=26;fillColor=none;horizontalStack=0;resizeParent=1;resizeParentMax=0;resizeLast=0;collapsible=1;marginBottom=0;whiteSpace=wrap;html=1;" vertex="1" parent="WIyWlLk6GJQsqaUBKTNV-1">
          <mxGeometry x="434" y="700" width="140" height="52" as="geometry" />
        </mxCell>
        <mxCell id="qDPiny_39G9H_rlqlFVw-81" style="edgeStyle=orthogonalEdgeStyle;rounded=0;orthogonalLoop=1;jettySize=auto;html=1;" edge="1" parent="WIyWlLk6GJQsqaUBKTNV-1" source="qDPiny_39G9H_rlqlFVw-15" target="qDPiny_39G9H_rlqlFVw-17">
          <mxGeometry relative="1" as="geometry" />
        </mxCell>
        <mxCell id="qDPiny_39G9H_rlqlFVw-82" value="*" style="edgeLabel;html=1;align=center;verticalAlign=middle;resizable=0;points=[];" vertex="1" connectable="0" parent="qDPiny_39G9H_rlqlFVw-81">
          <mxGeometry x="0.6545" y="1" relative="1" as="geometry">
            <mxPoint as="offset" />
          </mxGeometry>
        </mxCell>
        <mxCell id="qDPiny_39G9H_rlqlFVw-84" value="has" style="edgeLabel;html=1;align=center;verticalAlign=middle;resizable=0;points=[];" vertex="1" connectable="0" parent="qDPiny_39G9H_rlqlFVw-81">
          <mxGeometry x="-0.0505" y="-1" relative="1" as="geometry">
            <mxPoint as="offset" />
          </mxGeometry>
        </mxCell>
        <mxCell id="qDPiny_39G9H_rlqlFVw-15" value="GameObject" style="swimlane;fontStyle=0;childLayout=stackLayout;horizontal=1;startSize=30;fillColor=none;horizontalStack=0;resizeParent=1;resizeParentMax=0;resizeLast=0;collapsible=1;marginBottom=0;whiteSpace=wrap;html=1;" vertex="1" parent="WIyWlLk6GJQsqaUBKTNV-1">
          <mxGeometry x="224" y="700" width="140" height="52" as="geometry" />
        </mxCell>
        <mxCell id="qDPiny_39G9H_rlqlFVw-16" value="HelpObject" style="swimlane;fontStyle=0;childLayout=stackLayout;horizontal=1;startSize=30;fillColor=none;horizontalStack=0;resizeParent=1;resizeParentMax=0;resizeLast=0;collapsible=1;marginBottom=0;whiteSpace=wrap;html=1;" vertex="1" parent="WIyWlLk6GJQsqaUBKTNV-1">
          <mxGeometry x="44" y="900" width="140" height="52" as="geometry" />
        </mxCell>
        <mxCell id="qDPiny_39G9H_rlqlFVw-17" value="InteractionType" style="swimlane;fontStyle=0;childLayout=stackLayout;horizontal=1;startSize=30;fillColor=none;horizontalStack=0;resizeParent=1;resizeParentMax=0;resizeLast=0;collapsible=1;marginBottom=0;whiteSpace=wrap;html=1;" vertex="1" parent="WIyWlLk6GJQsqaUBKTNV-1">
          <mxGeometry x="224" y="900" width="140" height="52" as="geometry" />
        </mxCell>
        <mxCell id="qDPiny_39G9H_rlqlFVw-18" value="Notification" style="swimlane;fontStyle=0;childLayout=stackLayout;horizontal=1;startSize=30;fillColor=none;horizontalStack=0;resizeParent=1;resizeParentMax=0;resizeLast=0;collapsible=1;marginBottom=0;whiteSpace=wrap;html=1;" vertex="1" parent="WIyWlLk6GJQsqaUBKTNV-1">
          <mxGeometry x="434" y="900" width="140" height="52" as="geometry" />
        </mxCell>
        <mxCell id="qDPiny_39G9H_rlqlFVw-19" value="" style="endArrow=block;endSize=16;endFill=0;html=1;rounded=0;" edge="1" parent="WIyWlLk6GJQsqaUBKTNV-1" source="qDPiny_39G9H_rlqlFVw-16" target="qDPiny_39G9H_rlqlFVw-15">
          <mxGeometry width="160" relative="1" as="geometry">
            <mxPoint x="274" y="600" as="sourcePoint" />
            <mxPoint x="434" y="600" as="targetPoint" />
          </mxGeometry>
        </mxCell>
        <mxCell id="qDPiny_39G9H_rlqlFVw-80" value="is a type of" style="edgeLabel;html=1;align=center;verticalAlign=middle;resizable=0;points=[];" vertex="1" connectable="0" parent="qDPiny_39G9H_rlqlFVw-19">
          <mxGeometry x="-0.1786" y="3" relative="1" as="geometry">
            <mxPoint as="offset" />
          </mxGeometry>
        </mxCell>
        <mxCell id="qDPiny_39G9H_rlqlFVw-21" value="" style="endArrow=block;endSize=16;endFill=0;html=1;rounded=0;" edge="1" parent="WIyWlLk6GJQsqaUBKTNV-1" source="qDPiny_39G9H_rlqlFVw-18" target="qDPiny_39G9H_rlqlFVw-15">
          <mxGeometry width="160" relative="1" as="geometry">
            <mxPoint x="304" y="910" as="sourcePoint" />
            <mxPoint x="304" y="762" as="targetPoint" />
          </mxGeometry>
        </mxCell>
        <mxCell id="qDPiny_39G9H_rlqlFVw-85" value="is a" style="edgeLabel;html=1;align=center;verticalAlign=middle;resizable=0;points=[];" vertex="1" connectable="0" parent="qDPiny_39G9H_rlqlFVw-21">
          <mxGeometry x="-0.0747" y="-1" relative="1" as="geometry">
            <mxPoint as="offset" />
          </mxGeometry>
        </mxCell>
        <mxCell id="qDPiny_39G9H_rlqlFVw-24" value="" style="endArrow=block;endSize=16;endFill=0;html=1;rounded=0;" edge="1" parent="WIyWlLk6GJQsqaUBKTNV-1" source="qDPiny_39G9H_rlqlFVw-14" target="qDPiny_39G9H_rlqlFVw-12">
          <mxGeometry width="160" relative="1" as="geometry">
            <mxPoint x="304" y="910" as="sourcePoint" />
            <mxPoint x="304" y="762" as="targetPoint" />
          </mxGeometry>
        </mxCell>
        <mxCell id="qDPiny_39G9H_rlqlFVw-74" value="is a type of" style="edgeLabel;html=1;align=center;verticalAlign=middle;resizable=0;points=[];" vertex="1" connectable="0" parent="qDPiny_39G9H_rlqlFVw-24">
          <mxGeometry x="-0.0552" y="2" relative="1" as="geometry">
            <mxPoint as="offset" />
          </mxGeometry>
        </mxCell>
        <mxCell id="qDPiny_39G9H_rlqlFVw-34" value="" style="endArrow=none;html=1;rounded=0;" edge="1" parent="WIyWlLk6GJQsqaUBKTNV-1" source="qDPiny_39G9H_rlqlFVw-9" target="qDPiny_39G9H_rlqlFVw-8">
          <mxGeometry width="50" height="50" relative="1" as="geometry">
            <mxPoint x="224" y="166" as="sourcePoint" />
            <mxPoint x="394" y="166" as="targetPoint" />
          </mxGeometry>
        </mxCell>
        <mxCell id="qDPiny_39G9H_rlqlFVw-50" value="&amp;nbsp;*&amp;nbsp;" style="edgeLabel;html=1;align=center;verticalAlign=middle;resizable=0;points=[];" vertex="1" connectable="0" parent="qDPiny_39G9H_rlqlFVw-34">
          <mxGeometry x="-0.7602" y="-1" relative="1" as="geometry">
            <mxPoint as="offset" />
          </mxGeometry>
        </mxCell>
        <mxCell id="qDPiny_39G9H_rlqlFVw-36" value="" style="endArrow=block;endSize=16;endFill=0;html=1;rounded=0;" edge="1" parent="WIyWlLk6GJQsqaUBKTNV-1" source="qDPiny_39G9H_rlqlFVw-12" target="qDPiny_39G9H_rlqlFVw-10">
          <mxGeometry width="160" relative="1" as="geometry">
            <mxPoint x="514" y="710" as="sourcePoint" />
            <mxPoint x="514" y="592" as="targetPoint" />
          </mxGeometry>
        </mxCell>
        <mxCell id="qDPiny_39G9H_rlqlFVw-72" value="is a" style="edgeLabel;html=1;align=center;verticalAlign=middle;resizable=0;points=[];" vertex="1" connectable="0" parent="qDPiny_39G9H_rlqlFVw-36">
          <mxGeometry x="0.1244" y="-3" relative="1" as="geometry">
            <mxPoint as="offset" />
          </mxGeometry>
        </mxCell>
        <mxCell id="qDPiny_39G9H_rlqlFVw-37" value="" style="endArrow=block;endSize=16;endFill=0;html=1;rounded=0;" edge="1" parent="WIyWlLk6GJQsqaUBKTNV-1" source="qDPiny_39G9H_rlqlFVw-15" target="qDPiny_39G9H_rlqlFVw-10">
          <mxGeometry width="160" relative="1" as="geometry">
            <mxPoint x="514" y="710" as="sourcePoint" />
            <mxPoint x="514" y="592" as="targetPoint" />
          </mxGeometry>
        </mxCell>
        <mxCell id="qDPiny_39G9H_rlqlFVw-73" value="is a" style="edgeLabel;html=1;align=center;verticalAlign=middle;resizable=0;points=[];" vertex="1" connectable="0" parent="qDPiny_39G9H_rlqlFVw-37">
          <mxGeometry x="-0.2753" relative="1" as="geometry">
            <mxPoint as="offset" />
          </mxGeometry>
        </mxCell>
        <mxCell id="qDPiny_39G9H_rlqlFVw-40" value="" style="endArrow=block;endSize=16;endFill=0;html=1;rounded=0;" edge="1" parent="WIyWlLk6GJQsqaUBKTNV-1" source="qDPiny_39G9H_rlqlFVw-13" target="qDPiny_39G9H_rlqlFVw-9">
          <mxGeometry width="160" relative="1" as="geometry">
            <mxPoint x="517" y="710" as="sourcePoint" />
            <mxPoint x="531" y="592" as="targetPoint" />
          </mxGeometry>
        </mxCell>
        <mxCell id="qDPiny_39G9H_rlqlFVw-71" value="is a type of" style="edgeLabel;html=1;align=center;verticalAlign=middle;resizable=0;points=[];" vertex="1" connectable="0" parent="qDPiny_39G9H_rlqlFVw-40">
          <mxGeometry x="-0.0383" relative="1" as="geometry">
            <mxPoint as="offset" />
          </mxGeometry>
        </mxCell>
      </root>
    </mxGraphModel>
  </diagram>
</mxfile>
